<svg xmlns="http://www.w3.org/2000/svg" viewBox="0 0 32 32"><path fill="#4F0499" fill-rule="evenodd" d="M18.1 0c6.32 0 11.43 5.12 11.43 11.43V26.6A6.06 6.06 0 0 1 24 32H13.88A11.43 11.43 0 0 1 2.45 20.57V6.07A6.06 6.06 0 0 1 8.51 0h9.6zm0 3.66H8.51a2.4 2.4 0 0 0-2.4 2.4v14.5c0 4.3 3.48 7.78 7.77 7.78h9.94a2.4 2.4 0 0 0 2.05-1.97V11.43a7.78 7.78 0 0 0-7.77-7.77zM14.83 24.7c-1 .01-1.84-.79-1.87-1.8v-.03c0-1 .82-1.82 1.83-1.83h2.39c.76 0 1.37-.61 1.37-1.37v-4.83a1.83 1.83 0 0 1 3.66 0v7.6a2.4 2.4 0 0 1-2.1 2.26h-5.28zm2.38-17.36c1.01-.01 1.84.8 1.87 1.8v.03c0 1-.82 1.82-1.83 1.83h-2.38c-.76 0-1.38.61-1.38 1.37v4.83a1.83 1.83 0 1 1-3.65 0V9.6a2.4 2.4 0 0 1 2.1-2.26h5.27z"/></svg>